<?xml version="1.0" standalone="no"?>
<!DOCTYPE svg PUBLIC "-//W3C//DTD SVG 20010904//EN"
 "http://www.w3.org/TR/2001/REC-SVG-20010904/DTD/svg10.dtd">
<svg version="1.0" xmlns="http://www.w3.org/2000/svg"
 width="256.000000pt" height="256.000000pt" viewBox="0 0 256.000000 256.000000"
 preserveAspectRatio="xMidYMid meet">

<g transform="translate(0.000000,256.000000) scale(0.100000,-0.100000)"
fill="#336699" stroke="none">
<path d="M0 1280 l0 -1280 1280 0 1280 0 0 1280 0 1280 -1280 0 -1280 0 0
-1280z m1528 834 c224 -59 411 -251 457 -472 45 -208 -13 -419 -155 -575 -140
-152 -352 -231 -544 -203 l-46 7 0 255 c0 140 2 254 5 254 2 0 19 -9 37 -20
80 -48 185 -13 228 75 55 114 -26 239 -155 239 -98 0 -148 -52 -165 -170 -5
-38 -10 -291 -10 -571 l0 -503 -230 0 -230 0 0 559 c0 603 3 645 54 770 79
194 266 336 490 372 65 10 191 2 264 -17z"/>
</g>
</svg>
