<svg width="54" height="42" viewBox="0 0 54 42" fill="none" xmlns="http://www.w3.org/2000/svg">
<rect width="54" height="42" rx="3" fill="#EAEDF1"></rect>
<path d="M0 3C0 1.34315 1.34315 0 3 0H51C52.6569 0 54 1.34315 54 3V6H0V3Z" fill="#666666"></path>
<circle cx="3" cy="3" r="0.5" fill="var(--groot-primary003)" stroke="#EAEDF1"></circle>
<circle cx="6" cy="3" r="0.5" fill="var(--groot-primary003)" stroke="#EAEDF1"></circle>
<circle cx="9" cy="3" r="0.5" fill="var(--groot-primary003)" stroke="#EAEDF1"></circle>
<rect x="3" y="9" width="48" height="30" rx="2" fill="#666666"></rect>
<rect x="8" y="30" width="26" height="4" rx="2" fill="#EAEDF1"></rect>
<rect x="17" y="17" width="20" height="2" rx="1" fill="#EAEDF1"></rect>
<rect x="13" y="21" width="28" height="2" rx="1" fill="#EAEDF1"></rect>
<rect x="36.0004" y="30" width="10" height="4" rx="2" fill="#EAEDF1"></rect>
<circle cx="48" cy="12" r="1" fill="#EAEDF1"></circle>
</svg>