<svg width="54" height="42" viewBox="0 0 54 42" fill="none" xmlns="http://www.w3.org/2000/svg">
<rect width="54" height="42" rx="3" fill="#EAEDF1"></rect>
<path d="M0 3C0 1.34315 1.34315 0 3 0H51C52.6569 0 54 1.34315 54 3V6H0V3Z" fill="#666666"></path>
<circle cx="3" cy="3" r="0.5" fill="#EAEDF1" stroke="#EAEDF1"></circle>
<circle cx="6" cy="3" r="0.5" fill="#EAEDF1" stroke="#EAEDF1"></circle>
<circle cx="9" cy="3" r="0.5" fill="#EAEDF1" stroke="#EAEDF1"></circle>
<rect x="27" y="9" width="24" height="30" rx="2" fill="#666666"></rect>
<rect x="29" y="32" width="12" height="3" rx="1.5" fill="#EAEDF1"></rect>
<rect x="31" y="18" width="16" height="2" rx="1" fill="#EAEDF1"></rect>
<rect x="29" y="22" width="20" height="2" rx="1" fill="#EAEDF1"></rect>
<rect x="43" y="32" width="6" height="3" rx="1.5" fill="#EAEDF1"></rect>
<circle cx="48" cy="12" r="1" fill="#EAEDF1"></circle>
</svg>